My Soul To Take (2010)

Director: Wes Craven

My Soul to Take is an American horror film written and directed by Wes Craven. The film is the first film since Wes Craven's New Nightmare (1994) that he both wrote and directed.

A notorious serial killer uses his dying breath to place a deadly curse on a small town in this shocker from legendary horror director Wes Craven (Scream, A Nightmare on Elm Street). It's been 16 years since the maniac who terrorized Riverton met his grim demise. Seven children were born on the night he died, and he vowed that he would return one day to claim them all. Like clockwork, exactly 16 years later, the children born that fateful night begin vanishing without a trace. Could the killer have somehow cheated death the night that everyone thought he was killed, or has he perhaps been reincarnated as one of seven teens he swore to kill? Only one person knows the answer to that burning question. Adam "Bug" Heller (Max Thieriot) never knew how close he came to death the night his father went on that bloody rampage, and despite remaining completely unaware of the atrocities that mar his family bloodline, he's suffered terrifying nightmares from as far back as he can remember. Now, in order to save his friends, Bug will be forced to confront the evil that won't stop until it accomplishes the awful task it set out to complete on the night he was born. 

Media Info:
General
Complete name                    : J:SeedingMy Soul To Take (2010)[DVDRip][big_dad_e™]My Soul To Take (2010)[DVDRip][big_dad_e™].avi
Format                           : AVI
Format/Info                      : Audio Video Interleave
Format profile                   : OpenDML
File size                        : 1.04 GiB
Duration                         : 1h 47mn
Overall bit rate                 : 1 392 Kbps
Movie name                       : MY_SOUL_TO_TAKE.Title7.DVDRip
Writing application              : Lavf52.78.4
Original source form/Name        : MY_SOUL_TO_TAKE

Video
ID                               : 0
Format                           : MPEG-4 Visual
Format profile                   : Advanced Simple@L5
Format settings, BVOP            : 2
Format settings, QPel            : No
Format settings, GMC             : No warppoints
Format settings, Matrix          : Default (H.263)
Muxing mode                      : Packed bitstream
Codec ID                         : XVID
Codec ID/Hint                    : XviD
Duration                         : 1h 47mn
Bit rate                         : 76.4 Kbps
Width                            : 720 pixels
Height                           : 306 pixels
Display aspect ratio             : 2.35:1
Frame rate                       : 23.976 fps
Color space                      : YUV
Chroma subsampling               : 4:2:0
Bit depth                        : 8 bits
Scan type                        : Progressive
Compression mode                 : Lossy
Bits/(Pixel*Frame)               : 0.014
Stream size                      : 58.6 MiB (5%)
Writing library                  : XviD 1.2.1 (UTC 2008-12-04)

Audio
ID                               : 1
Format                           : MPEG Audio
Format version                   : Version 1
Format profile                   : Layer 3
Mode                             : Joint stereo
Codec ID                         : 55
Codec ID/Hint                    : MP3
Duration                         : 1h 47mn
Bit rate mode                    : Constant
Bit rate                         : 320 Kbps
Channel(s)                       : 2 channels
Sampling rate                    : 48.0 KHz
Compression mode                 : Lossy
Stream size                      : 6.66 MiB (1%)
Alignment                        : Aligned on interleaves
Interleave, duration             : 71 ms (1.70 video frames)
Writing library                  : LAMEUUU

File Scan:
Malwarebytes' Anti-Malware 1.50.1.1100
www.malwarebytes.org

Database version: 6253
4/2/2011 9:15:37 PM
mbam-log-2011-04-02 (21-15-37).txt

Scan type: Quick scan
Objects scanned: 5
Time elapsed: 16 second(s)

Memory Processes Infected: 0
Memory Modules Infected: 0
Registry Keys Infected: 0
Registry Values Infected: 0
Registry Data Items Infected: 0
Folders Infected: 0
Files Infected: 0

Memory Processes Infected:
(No malicious items detected)

Memory Modules Infected:
(No malicious items detected)

Registry Keys Infected:
(No malicious items detected)

Registry Values Infected:
(No malicious items detected)

Registry Data Items Infected:
(No malicious items detected)

Folders Infected:
(No malicious items detected)

Files Infected:
(No malicious items detected)

When using TPB please read these important notes:
  
01- Anti-malware apps may warn about keygens, patches, cracks, etc., because of 
    their capabilities, (generating codes, etc.). Sometimes they're added to 
    the virus/spyware database and will be detected as malware. If you don't trust
    the keygens, patches, cracks, etc., don't use them. 
    
02- Before running .exe-files, keygens, patches, cracks, etc., always check first 
    if they can be unpacked. Often some third party added a virus to the 
    original file, repacked it and uploaded it again.

03- Letting anti-malware apps send scan results to their companies can cause
    keygens, patches, cracks, etc., to be added to their virus-database.

04- Firewalls which are set to automatically determine connections will allow 
    apps & malware!. Avoid this by manually configuring your firewall.

05- Usually (new) torrents with many downloads and seeders in a brief period is
    suspicious! Torrents with the Skull & Crossbones icon are trusted.

06- Some people use multiple accounts and post fake comments 
    and/or files trying to spread confusion. They seldom seriously
    comment or have any torrents, or a just a few to look passable.

07- Clicking on unknown links can cause malware to be installed on your machine.
  
08- In general often there are more fake and negative comments than reliable and
    positive comments.

09- In some countries uploading/downloading copyright protected material is 
    forbidden, but showing some appreciation to reliable up-loaders is not.

10- Posting fake and negative comments or fake/infected uploads on TPB can result
    in getting banned from TPB!

Requests?  Find me on SuprBay. http://forum.suprbay.org
 

For reporting bad or suspicious torrents: 
http://forum.suprbay.org/forumdisplay.php?fid=29

For more of my torrents:
https://thepiratebay.org/user/big_dad_e/  (Secured)

All torrents scanned with:
Norton Anti-virus
Malwarebytes' Anti-malware 
http://www.pirate-party.us/

ALWAYS SEED & THANKS SEEDERS!